<svg width="26" height="26" viewBox="0 0 26 26" fill="none" xmlns="http://www.w3.org/2000/svg">
<path d="M13 26C5.82884 26 0 20.1712 0 13C0 5.82884 5.82884 0 13 0C20.1712 0 26 5.82884 26 13C26 20.1712 20.1712 26 13 26ZM13 1.81395C6.83256 1.81395 1.81395 6.83256 1.81395 13C1.81395 19.1674 6.83256 24.186 13 24.186C19.1674 24.186 24.186 19.1674 24.186 13C24.186 6.83256 19.1674 1.81395 13 1.81395Z" fill="#292D32"/>
<path d="M11.2822 17.3294C11.0403 17.3294 10.8106 17.2327 10.6413 17.0634L7.21886 13.6411C6.86817 13.2904 6.86817 12.7099 7.21886 12.3592C7.56956 12.0085 8.15003 12.0085 8.50073 12.3592C10.0369 13.8953 12.5275 13.8953 14.0636 12.3592L17.498 8.92477C17.8487 8.57407 18.4292 8.57407 18.7799 8.92477C19.1306 9.27547 19.1306 9.85593 18.7799 10.2066L11.9231 17.0634C11.7538 17.2327 11.524 17.3294 11.2822 17.3294Z" fill="#292D32"/>
</svg>
